<svg width="113" height="156" fill="none" xmlns="http://www.w3.org/2000/svg"><g filter="url(#filter0_d)"><path d="M60.115 142.892a.999.999 0 01-1.414-.04l-6.182-6.54a1 1 0 011.453-1.374l5.496 5.814 5.814-5.496a1 1 0 011.374 1.454l-6.54 6.182zm-.244-138.56c-.405-.303-.636-.442-.762-.49-.053-.02-.008.008.098-.002a.568.568 0 00.343-.165c.06-.063.055-.094.027-.01a2.383 2.383 0 00-.086.432c-.056.435-.079 1.073-.068 1.982l-2 .024c-.01-.931.01-1.682.084-2.26.066-.515.196-1.132.6-1.553.24-.25.55-.405.897-.44.318-.033.603.041.82.124.416.16.847.46 1.243.755l-1.196 1.603zm.025 11.76c.15 2.797.323 6.13.496 10.082l-1.998.087a988.657 988.657 0 00-.495-10.06l1.997-.108zm.882 20.135c.102 3.091.198 6.45.282 10.098l-1.999.046c-.085-3.64-.18-6.993-.282-10.079l1.999-.065zm.474 20.194c.047 3.176.085 6.53.112 10.072l-2 .015c-.026-3.536-.065-6.886-.112-10.057l2-.03zm.155 20.143c.004 3.23-.002 6.596-.018 10.102l-2-.01c.016-3.501.022-6.863.018-10.09l2-.002zm-.091 20.205a2159.03 2159.03 0 01-.123 10.09l-2-.029c.05-3.471.09-6.83.123-10.081l2 .02zm-.292 20.166a2561.22 2561.22 0 01-.21 10.066l-1.998-.046c.078-3.444.147-6.796.209-10.058l2 .038zm-.456 20.133c-.045 1.688-.092 3.396-.14 5.126l-2-.057a2936 2936 0 00.14-5.122l2 .053zm.234 6.551a2 2 0 01-2.827-.08l-12.365-13.08a2 2 0 012.907-2.748l10.99 11.627 11.628-10.991a2 2 0 112.748 2.907l-13.081 12.365zM59.272 5.133a6.855 6.855 0 00-.42-.296c-.11-.07-.137-.075-.1-.06.029.01.238.09.556.057a1.56 1.56 0 00.963-.467c.104-.108.167-.207.203-.272a.72.72 0 00.051-.112c.002-.006-.02.06-.042.24-.047.364-.07.946-.06 1.844l-4 .048c-.011-.942.01-1.75.092-2.398.067-.525.22-1.443.87-2.12.4-.416.928-.682 1.518-.742.53-.054.98.071 1.279.186.56.214 1.091.594 1.483.887l-2.392 3.205zm1.623 10.906c.15 2.798.323 6.135.497 10.09l-3.997.176a987.91 987.91 0 00-.494-10.05l3.994-.216zm.882 20.155c.102 3.094.198 6.457.283 10.107l-3.999.093c-.084-3.637-.18-6.986-.282-10.069l3.998-.131zm.475 20.212c.047 3.179.085 6.535.112 10.08l-4 .03c-.026-3.535-.064-6.882-.112-10.05l4-.06zm.155 20.157c.004 3.233-.002 6.6-.018 10.108l-4-.019c.016-3.5.022-6.86.018-10.084l4-.005zm-.091 20.215c-.032 3.256-.073 6.62-.124 10.095l-4-.058c.051-3.469.092-6.826.124-10.076l4 .04zm-.292 20.175c-.061 3.266-.13 6.622-.21 10.071l-3.998-.091c.078-3.443.148-6.794.209-10.055l4 .075zm-.457 20.141c-.044 1.689-.091 3.398-.14 5.128l-3.998-.113c.048-1.727.095-3.434.14-5.12l3.998.105z" fill="#000"/></g><defs><filter id="filter0_d" x=".568" y=".006" width="111.504" height="155.186" filterUnits="userSpaceOnUse" color-interpolation-filters="sRGB"><feFlood flood-opacity="0" result="BackgroundImageFix"/><feColorMatrix in="SourceAlpha" values="0 0 0 0 0 0 0 0 0 0 0 0 0 0 0 0 0 0 127 0"/><feOffset dy="4"/><feGaussianBlur stdDeviation="2"/><feColorMatrix values="0 0 0 0 0 0 0 0 0 0 0 0 0 0 0 0 0 0 0.25 0"/><feBlend in2="BackgroundImageFix" result="effect1_dropShadow"/><feBlend in="SourceGraphic" in2="effect1_dropShadow" result="shape"/></filter></defs></svg>