<svg width="204" height="141" fill="none" xmlns="http://www.w3.org/2000/svg"><g filter="url(#filter0_d)"><path d="M168.423 129.425a.998.998 0 001.401-.187l5.464-7.152a1 1 0 10-1.589-1.214l-4.857 6.357-6.357-4.857a1 1 0 00-1.214 1.589l7.152 5.464zM26.546 14.465c.018-.018.114-.09.35-.199a7.42 7.42 0 01.909-.332c.77-.236 1.815-.475 3.118-.694l-.332-1.973c-1.356.229-2.492.485-3.372.754a9.631 9.631 0 00-1.157.427c-.315.144-.63.322-.874.547l1.358 1.47zm14.568-2.114c3.08-.086 6.544-.046 10.303.175l.118-1.996a121.876 121.876 0 00-10.477-.179l.056 2zm20.56 1.179c3.26.444 6.655 1.027 10.144 1.775l.42-1.956a138.803 138.803 0 00-10.294-1.801l-.27 1.982zm20.134 4.321a127.53 127.53 0 019.75 3.325l.723-1.866a129.542 129.542 0 00-9.904-3.376l-.569 1.917zm19.176 7.436a116.074 116.074 0 019.046 4.919l1.033-1.713a118.196 118.196 0 00-9.202-5.003l-.877 1.797zm17.594 10.62a109.794 109.794 0 017.986 6.47l1.331-1.493a111.854 111.854 0 00-8.132-6.588l-1.185 1.611zm15.351 13.679c2.28 2.45 4.495 5.055 6.633 7.823l1.583-1.222a114.117 114.117 0 00-6.752-7.964l-1.464 1.363zm12.545 16.225a123.393 123.393 0 015.177 8.892l1.769-.934a125.17 125.17 0 00-5.262-9.037l-1.684 1.079zm9.625 18.183a144.032 144.032 0 013.745 9.6l1.887-.66a145.943 145.943 0 00-3.796-9.734l-1.836.794zm6.824 19.435a174.741 174.741 0 012.461 10.006l1.955-.421a176.454 176.454 0 00-2.489-10.121l-1.927.536zm4.354 20.139c.273 1.706.527 3.438.762 5.195l1.982-.265a208.175 208.175 0 00-.769-5.245l-1.975.315zm.539 6.652a1.999 1.999 0 002.803-.375l10.928-14.303a2 2 0 10-3.178-2.429l-9.714 12.714-12.714-9.713a2 2 0 10-2.429 3.178l14.304 10.928zM27.224 15.199c-.094.087-.108.066.088-.024.17-.078.428-.176.786-.285.714-.219 1.714-.45 2.991-.664l-.664-3.945c-1.382.233-2.564.498-3.498.784-.467.143-.901.3-1.281.474-.355.162-.78.392-1.137.722l2.715 2.938zm13.917-1.849c3.052-.084 6.486-.045 10.218.175l.234-3.993a122.86 122.86 0 00-10.562-.18l.11 3.998zm20.397 1.17a135.61 135.61 0 0110.07 1.763l.839-3.912a139.627 139.627 0 00-10.368-1.814l-.54 3.963zm19.986 4.29c3.19.947 6.424 2.04 9.674 3.298l1.444-3.73a130.503 130.503 0 00-9.98-3.403l-1.138 3.835zm19.022 7.376a115.21 115.21 0 018.968 4.876l2.066-3.425a119.456 119.456 0 00-9.28-5.046l-1.754 3.595zm17.44 10.527a108.859 108.859 0 017.913 6.41l2.661-2.986a113.017 113.017 0 00-8.204-6.646l-2.37 3.222zm15.211 13.554a111.23 111.23 0 016.574 7.753l3.165-2.445a114.788 114.788 0 00-6.811-8.033l-2.928 2.725zm12.435 16.083a122.31 122.31 0 015.135 8.82l3.537-1.868a126.642 126.642 0 00-5.303-9.109l-3.369 2.157zm9.55 18.04a143.155 143.155 0 013.718 9.535l3.775-1.321a146.893 146.893 0 00-3.822-9.801l-3.671 1.588zm6.777 19.307a172.349 172.349 0 012.447 9.949l3.911-.842a176.805 176.805 0 00-2.504-10.179l-3.854 1.072zm4.331 20.029c.271 1.697.524 3.421.758 5.17l3.964-.53c-.238-1.783-.496-3.54-.772-5.271l-3.95.631z" fill="#000"/></g><defs><filter id="filter0_d" x=".872" y=".727" width="202.994" height="140.093" filterUnits="userSpaceOnUse" color-interpolation-filters="sRGB"><feFlood flood-opacity="0" result="BackgroundImageFix"/><feColorMatrix in="SourceAlpha" values="0 0 0 0 0 0 0 0 0 0 0 0 0 0 0 0 0 0 127 0"/><feOffset dy="4"/><feGaussianBlur stdDeviation="2"/><feColorMatrix values="0 0 0 0 0 0 0 0 0 0 0 0 0 0 0 0 0 0 0.25 0"/><feBlend in2="BackgroundImageFix" result="effect1_dropShadow"/><feBlend in="SourceGraphic" in2="effect1_dropShadow" result="shape"/></filter></defs></svg>