<svg width="28" height="33" fill="none" xmlns="http://www.w3.org/2000/svg"><circle cx="13.5" cy="19.5" r="13.5" fill="#F4F4F4"/><path d="M11.046 18.35a.594.594 0 00.594-.594V15.44a1.88 1.88 0 011.877-1.877 1.88 1.88 0 011.878 1.877v2.316a.594.594 0 001.187 0V15.44a3.068 3.068 0 00-3.065-3.065 3.069 3.069 0 00-3.065 3.065v2.316c0 .328.266.594.594.594z" fill="#7E69AC"/><path d="M20.328 17.015h-3.151v.74a1.189 1.189 0 01-2.375 0v-.74h-2.568v.74a1.189 1.189 0 01-2.375 0v-.74H6.672c-.164 0-.265.13-.226.289l2.077 8.46c.125.475.626.861 1.118.861h7.718c.493 0 .992-.386 1.118-.861l2.077-8.46c.04-.16-.062-.289-.226-.289z" fill="#7E69AC"/></svg>