<svg width="102" height="52" fill="none" xmlns="http://www.w3.org/2000/svg"><path d="M5.511 39.434L4.487 40.58l-.93.53h-.931l-.745-.53c-.434-.647-1.191-2.63-.745-5.385.447-2.755 2.42-8.093 3.351-10.418C6.194 20.57 11.021 11.87 16.68 10.74c5.66-1.13 6.826 5.415 6.702 8.829l.093.53.186.264.28.089.186-.089.186-.176.093-.442c3.649-3.672 5.864-1.236 6.516.442l.279.176h.186l.28-.264c4.374-9.359 8.655-9.712 11.727-9.712 3.258 0 1.955 7.151.465 9.712-1.19 2.048-2.295 6.739-2.699 8.828-1.266 5.298-.682 11.39.745 15.45.28.795 3.072 4.68-2.42 5.65-4.393.778-5.616-6.503-5.678-10.24-.372-6.092 6.143-16.245 1.862-16.51-3.238-.2-4.747 9.27-5.12 14.214.28 6.092-1.644 9.24-2.885 9.8-3.351.918-3.816-2.09-3.63-3.708l.838-4.944 1.675-7.681c.28-1 .28-2.984-1.955-2.913-2.234.07-3.413 7.092-3.723 10.594.224 4.379-1.52 9.064-2.42 10.86-.341.647-1.508 1.836-3.444 1.412-1.936-.424-2.048-2.884-1.862-4.061.063-.618.391-2.49 1.21-5.033 1.024-3.178 1.676-6.886 2.514-11.3.67-3.532.03-6.946-.373-8.211-1.191-2.543-2.978-1.59-4.095-.795-.93 0-3.444 4.768-4.282 7.416L7 32.9l-.837 3.62-.187 1.236v.618l-.465 1.06zM50.43 13.238c-2.308-.282-3.506 1.825-3.816 2.914-.521 3.46 2.792 2.736 3.816 1.854.745-.442 2.886-4.415 0-4.768z" fill="#fff" stroke="#fff"/><path d="M49.816 24.248c-1.34 2.896-1.178 5.15-.93 5.915.1.495.662.206.93 0l.745-.883.838-1.5c.558-1.06.93-3.061.93-4.062.298-13.914 3.786-18.04 5.492-18.363 5.585-1.766 4.189 3.09 2.793 5.738-1.8 3.061-4.99 9.765-3.351 12.096 1.638 2.33 3.165.677 3.723-.442.248-.765.8-2.472 1.024-3.178.223-.706.59-3.767.745-5.209l.558-3.09c.496-2.384 2.178-7.61 4.933-9.447 2.755-1.836 3.754-.176 3.91.883.093.736-.075 2.772-1.49 5.032-1.415 2.26-2.327 5.003-2.606 6.092l.186.265.186-.265c1.34-1.765 3.91-2.854 5.026-3.178 3.873-.918 4.344 1.736 4.096 3.178 0 .089-.13.654-.652 2.207-.52 1.554-3.63 4.356-5.119 5.563l.28.353c.186.147.576.441.65.441.075 0 .28.353.373.53.224.353.962.794 1.303.971h.28l.279-.177c1.117-.847 1.954-4.532 2.234-6.268.186-1.766 1.985-4.709 2.978-5.915 1.235-1.501 4.034-4.18 5.585-5.297 1.241-.766 4.04-1.82 5.305.088 1.266 1.907-.713 3.502-1.861 4.061l-2.792 1.766c-1.955.883-3.538 3.237-4.096 4.414-.521 1.695.28 2.472.745 2.649.34.176 1.303.388 2.42-.177s1.768-2.001 1.954-2.648l.931-2.296c.521-1.624 1.645-2.913 2.14-3.355.063-.176.578-.494 2.142-.353 1.563.141 1.272 1.825.93 2.649l-1.21 2.913c-.155.589-.186 1.784.931 1.854 1.117.07 1.955-.5 2.234-.794.28-.295.987-1.042 1.582-1.678.596-.636 1.862-1.677 2.42-2.119.373-.265.95-.653 1.397.265.558 1.148-1.862 4.238-2.234 4.768-.298.423-2.11 2.236-2.979 3.09-.992.941-3.462 2.842-5.398 2.913-2.42.088-2.513-1.324-2.606-1.5-.075-.142-.28-.06-.373 0l-2.606 2.736c-3.425 2.896-6.143 1.678-7.074.706h-.372l-.28.354c.031.206-.297.953-1.861 2.295s-3.754 1.207-4.654.971c-.28-.147-.95-.547-1.396-.97-.447-.425-.62-1.943-.652-2.65-.03-.323-.242-1.041-.837-1.324-.596-.282-.931.53-1.024.971-.062.147-.28.83-.652 2.384-.372 1.554-1.334 3.12-1.768 3.708-.249.206-.857.512-1.303.088-.447-.423-.745-1.177-.838-1.5l-.186-.354-.186-.265c-.15-.282-.31-.176-.373-.088l-1.395 2.65c-.372.559-1.415 1.871-2.606 2.648-1.192.777-2.668.5-3.258.265-.186-.088-.652-.494-1.024-1.412-.372-.919-.837-.56-1.024-.265l-.558.883-.559.97-1.768 2.296c-.807 1.03-2.867 2.808-4.654 1.678s-1.986-4.473-1.862-6.004l.745-5.562c.59-2.501 2.346-7.38 4.654-6.886 2.308.494 2.203 2.325 1.861 3.178z" fill="#fff" stroke="#fff"/><path d="M70.852 16.92c-2.68-.212-3.723 2.149-3.909 3.355 1.117.142 2.079-.235 2.42-.441 2.83-1.978 2.172-2.767 1.49-2.914z" fill="#967ECB" stroke="#fff"/></svg>