<svg width="72" height="183" fill="none" xmlns="http://www.w3.org/2000/svg"><g filter="url(#filter0_d)"><path d="M66.978 168.793a1 1 0 01-.771 1.185l-8.806 1.859a1 1 0 01-.414-1.957l7.828-1.652-1.652-7.828a1 1 0 011.957-.413l1.858 8.806zM56.435 2.699c-.893.913-2.184 2.117-3.75 3.571l-1.361-1.465c1.578-1.466 2.83-2.634 3.681-3.504l1.43 1.398zM45.177 13.38a210.483 210.483 0 00-7.17 7.356l-1.467-1.359a212.47 212.47 0 017.238-7.426l1.4 1.43zM31.24 28.483a143.792 143.792 0 00-6.238 8.168l-1.633-1.155a145.825 145.825 0 016.324-8.282l1.547 1.269zM19.427 45.266a102.031 102.031 0 00-4.741 9.067l-1.818-.834a103.995 103.995 0 014.834-9.245l1.725 1.012zm-8.46 18.582a74.89 74.89 0 00-2.478 9.893l-1.97-.35a76.896 76.896 0 012.544-10.157l1.903.614zM7.458 83.867A64.6 64.6 0 008 94.01l-1.983.264a66.6 66.6 0 01-.559-10.458l2 .05zm2.665 20.116a72.48 72.48 0 003.552 9.515l-1.821.826a74.482 74.482 0 01-3.65-9.777l1.919-.564zm8.343 18.521a98.088 98.088 0 005.811 8.45l-1.588 1.216a100.106 100.106 0 01-5.929-8.623l1.706-1.043zm12.419 16.322a140.002 140.002 0 007.213 7.312l-1.373 1.455a142.678 142.678 0 01-7.316-7.417l1.476-1.35zm14.887 14.111c2.53 2.11 5.207 4.225 8.038 6.346l-1.199 1.601a198.68 198.68 0 01-8.12-6.411l1.281-1.536zm16.383 12.301c1.43.974 2.893 1.949 4.39 2.924l-1.092 1.676a259.03 259.03 0 01-4.424-2.947l1.126-1.653zm5.8 3.349a2 2 0 01-1.543 2.37L48.8 174.674a2 2 0 11-.826-3.914l15.655-3.304-3.304-15.655a2 2 0 113.914-.826l3.717 17.612zM57.15 3.399c-.914.933-2.225 2.155-3.785 3.604l-2.722-2.931c1.585-1.472 2.816-2.62 3.648-3.47l2.859 2.797zM45.877 14.094a209.541 209.541 0 00-7.136 7.321l-2.935-2.718c2.54-2.742 5-5.236 7.273-7.461l2.798 2.858zM32.013 29.117a142.84 142.84 0 00-6.195 8.11l-3.266-2.308a146.858 146.858 0 016.368-8.339l3.093 2.537zM20.29 45.772a100.997 100.997 0 00-4.695 8.978l-3.636-1.669a105 105 0 014.88-9.333l3.45 2.025zm-8.372 18.383a73.881 73.881 0 00-2.445 9.761l-3.938-.7a77.897 77.897 0 012.576-10.29l3.807 1.229zm-3.46 19.737c-.082 3.27.084 6.601.534 9.987l-3.965.527a67.6 67.6 0 01-.567-10.614l3.998.1zm2.625 19.809a71.537 71.537 0 003.504 9.384l-3.643 1.653a75.487 75.487 0 01-3.698-9.909l3.837-1.128zm8.238 18.282a97.319 97.319 0 005.751 8.364l-3.176 2.43a101.177 101.177 0 01-5.988-8.708l3.413-2.086zm12.302 16.168a139.098 139.098 0 007.162 7.26l-2.746 2.909a143.265 143.265 0 01-7.367-7.469l2.951-2.7zm14.79 14.018a194.83 194.83 0 007.998 6.313l-2.398 3.202c-2.87-2.15-5.59-4.298-8.161-6.443l2.562-3.072zm16.306 12.243c1.424.97 2.881 1.941 4.373 2.912l-2.184 3.352a261.853 261.853 0 01-4.441-2.959l2.252-3.305z" fill="#000"/></g><defs><filter id="filter0_d" x=".438" y=".601" width="71.562" height="182.116" filterUnits="userSpaceOnUse" color-interpolation-filters="sRGB"><feFlood flood-opacity="0" result="BackgroundImageFix"/><feColorMatrix in="SourceAlpha" values="0 0 0 0 0 0 0 0 0 0 0 0 0 0 0 0 0 0 127 0"/><feOffset dy="4"/><feGaussianBlur stdDeviation="2"/><feColorMatrix values="0 0 0 0 0 0 0 0 0 0 0 0 0 0 0 0 0 0 0.25 0"/><feBlend in2="BackgroundImageFix" result="effect1_dropShadow"/><feBlend in="SourceGraphic" in2="effect1_dropShadow" result="shape"/></filter></defs></svg>