<svg width="60" height="148" fill="none" xmlns="http://www.w3.org/2000/svg"><g filter="url(#filter0_d)"><path d="M6.553 133.35a1 1 0 00.768 1.188l8.798 1.894a1 1 0 10.42-1.955l-7.82-1.684 1.684-7.821a1 1 0 00-1.955-.421l-1.895 8.799zM5.873 3.392c.84-.42 2.154-.512 3.958-.102l.443-1.95C8.276.885 6.42.883 4.98 1.603l.894 1.789zm12.284 3.699c2.378 1.497 4.907 3.38 7.473 5.609l1.311-1.51c-2.634-2.288-5.245-4.234-7.718-5.792l-1.066 1.693zM32.33 19.27a84.99 84.99 0 015.922 7.296l1.62-1.173a86.96 86.96 0 00-6.062-7.467l-1.48 1.344zm10.989 15.204a75.27 75.27 0 014.084 8.444l1.852-.755a77.272 77.272 0 00-4.192-8.669l-1.744.98zm7.021 17.333a61.372 61.372 0 011.614 9.198l1.99-.193a63.374 63.374 0 00-1.665-9.497l-1.939.492zm1.763 18.525a56.922 56.922 0 01-1.379 9.247l1.948.456a58.93 58.93 0 001.427-9.572l-1.996-.131zM47.9 88.446a66.79 66.79 0 01-4.141 8.427l1.73 1.003a68.812 68.812 0 004.265-8.679l-1.854-.75zm-9.319 16.202a91.481 91.481 0 01-6.033 7.176l1.465 1.362a93.51 93.51 0 006.165-7.334l-1.597-1.204zm-12.74 13.776a129.583 129.583 0 01-7.219 6.057l1.23 1.577a131.854 131.854 0 007.332-6.151l-1.342-1.483zm-14.833 11.623a172.59 172.59 0 01-4.018 2.673l1.084 1.68c1.392-.898 2.747-1.8 4.065-2.704l-1.131-1.649zm-5.431 3.092a2.001 2.001 0 001.534 2.377l17.597 3.788a2 2 0 10.842-3.91l-15.642-3.368 3.368-15.641a2.001 2.001 0 00-3.91-.842l-3.79 17.596zM6.32 4.286c.54-.27 1.582-.41 3.29-.021l.886-3.9C8.4-.112 6.273-.162 4.531.709L6.32 4.286zm11.304 3.651c2.33 1.466 4.818 3.318 7.35 5.518l2.623-3.02c-2.668-2.318-5.32-4.295-7.841-5.883l-2.132 3.385zM31.59 19.944a83.976 83.976 0 015.853 7.209l3.24-2.345a87.977 87.977 0 00-6.132-7.554l-2.96 2.69zm10.858 15.02a74.284 74.284 0 014.03 8.333l3.704-1.51a78.284 78.284 0 00-4.246-8.782l-3.488 1.96zm6.924 17.09a60.381 60.381 0 011.588 9.048l3.981-.385a64.382 64.382 0 00-1.692-9.648l-3.877.985zm1.734 18.213a55.92 55.92 0 01-1.354 9.085l3.895.911a59.935 59.935 0 001.45-9.733l-3.99-.263zm-4.133 17.804a65.787 65.787 0 01-4.08 8.3l3.461 2.007a69.79 69.79 0 004.327-8.805l-3.708-1.502zm-9.19 15.974a90.416 90.416 0 01-5.968 7.098l2.93 2.723a94.411 94.411 0 006.231-7.412l-3.193-2.409zM25.17 117.683a128.705 128.705 0 01-7.164 6.01l2.461 3.153a132.256 132.256 0 007.387-6.197l-2.684-2.966zm-14.73 11.539a173.27 173.27 0 01-3.994 2.658l2.17 3.361c1.4-.904 2.761-1.811 4.088-2.72l-2.263-3.299z" fill="#000"/></g><defs><filter id="filter0_d" x=".531" y=".025" width="58.565" height="147.324" filterUnits="userSpaceOnUse" color-interpolation-filters="sRGB"><feFlood flood-opacity="0" result="BackgroundImageFix"/><feColorMatrix in="SourceAlpha" values="0 0 0 0 0 0 0 0 0 0 0 0 0 0 0 0 0 0 127 0"/><feOffset dy="4"/><feGaussianBlur stdDeviation="2"/><feColorMatrix values="0 0 0 0 0 0 0 0 0 0 0 0 0 0 0 0 0 0 0.25 0"/><feBlend in2="BackgroundImageFix" result="effect1_dropShadow"/><feBlend in="SourceGraphic" in2="effect1_dropShadow" result="shape"/></filter></defs></svg>