<svg width="189" height="82" fill="none" xmlns="http://www.w3.org/2000/svg"><g filter="url(#filter0_d)"><path d="M174.611 1.079a1 1 0 011.31.532l3.502 8.29a1 1 0 11-1.842.779l-3.113-7.37-7.37 3.113a1 1 0 01-.778-1.842l8.291-3.502zM6.841 44.664c.089.139.41.484 1.081 1.041.638.53 1.513 1.188 2.612 1.947l-1.136 1.645a40.065 40.065 0 01-2.753-2.053c-.664-.551-1.21-1.07-1.486-1.497l1.682-1.083zm12.435 8.307a149.86 149.86 0 009.137 4.606l-.84 1.815a151.763 151.763 0 01-9.26-4.667l.963-1.754zm18.6 8.619a154.928 154.928 0 009.686 3.384l-.596 1.909a157.04 157.04 0 01-9.812-3.427l.722-1.866zm19.572 6.094c3.277.772 6.642 1.437 10.074 1.966l-.304 1.976A132.643 132.643 0 0156.99 69.63l.458-1.946zm20.246 3.087a104.9 104.9 0 0010.233.176l.065 1.999a106.65 106.65 0 01-10.428-.18l.13-1.995zm20.408-.699a86.831 86.831 0 0010.013-2.017l.511 1.934c-3.41.9-6.83 1.58-10.243 2.063l-.28-1.98zm19.681-5.218a80.989 80.989 0 009.215-4.396l.973 1.748a82.997 82.997 0 01-9.442 4.504l-.746-1.856zm17.795-9.892a88.69 88.69 0 007.864-6.474l1.357 1.47a90.681 90.681 0 01-8.042 6.619l-1.179-1.615zm14.992-13.79a110.435 110.435 0 006.384-7.998l1.618 1.175a112.109 112.109 0 01-6.5 8.143l-1.502-1.32zm12.053-16.528a145.07 145.07 0 005.005-8.937l1.777.916a146.38 146.38 0 01-5.074 9.06l-1.708-1.04zm9.41-18.19a183.658 183.658 0 002.04-4.83l1.854.752a191.826 191.826 0 01-2.063 4.883l-1.831-.805zm2.189-6.296a2 2 0 012.62 1.064l7.005 16.581a2.001 2.001 0 01-3.685 1.557l-6.226-14.74-14.739 6.227a2 2 0 01-1.557-3.685L174.222.158zM7.682 44.123c-.004-.006.205.253.88.813a37.17 37.17 0 002.54 1.893L8.83 50.12a41.044 41.044 0 01-2.823-2.106c-.66-.549-1.32-1.155-1.688-1.726l3.364-2.165zm12.075 7.972a148.823 148.823 0 009.076 4.574l-1.68 3.63a152.789 152.789 0 01-9.32-4.698l1.925-3.506zm18.48 8.562a153.948 153.948 0 009.623 3.362l-1.192 3.819a158.017 158.017 0 01-9.874-3.45l1.442-3.73zm19.44 6.053c3.254.767 6.593 1.427 9.997 1.951l-.608 3.954a133.558 133.558 0 01-10.306-2.011l.918-3.894zm20.082 3.063c3.346.218 6.73.285 10.136.174l.13 3.998c-3.544.116-7.059.046-10.526-.18l.26-3.992zm20.203-.69a85.892 85.892 0 009.898-1.994l1.021 3.867a89.855 89.855 0 01-10.358 2.087l-.561-3.96zm19.449-5.157c3.062-1.23 6.1-2.67 9.101-4.341l1.946 3.495a83.999 83.999 0 01-9.556 4.558l-1.491-3.712zm17.578-9.772a87.885 87.885 0 007.775-6.4l2.713 2.939a91.747 91.747 0 01-8.13 6.692l-2.358-3.231zm14.83-13.642a109.338 109.338 0 006.326-7.926l3.236 2.35a113.228 113.228 0 01-6.558 8.217l-3.004-2.641zm11.949-16.388a143.64 143.64 0 004.971-8.875l3.555 1.832a146.998 146.998 0 01-5.109 9.123l-3.417-2.08zm9.349-18.073a184.739 184.739 0 002.03-4.803l3.706 1.504a187.157 187.157 0 01-2.074 4.909l-3.662-1.61z" fill="#000"/></g><defs><filter id="filter0_d" x=".318" y="0" width="187.686" height="82.001" filterUnits="userSpaceOnUse" color-interpolation-filters="sRGB"><feFlood flood-opacity="0" result="BackgroundImageFix"/><feColorMatrix in="SourceAlpha" values="0 0 0 0 0 0 0 0 0 0 0 0 0 0 0 0 0 0 127 0"/><feOffset dy="4"/><feGaussianBlur stdDeviation="2"/><feColorMatrix values="0 0 0 0 0 0 0 0 0 0 0 0 0 0 0 0 0 0 0.25 0"/><feBlend in2="BackgroundImageFix" result="effect1_dropShadow"/><feBlend in="SourceGraphic" in2="effect1_dropShadow" result="shape"/></filter></defs></svg>