<svg width="201" height="210" fill="none" xmlns="http://www.w3.org/2000/svg"><g filter="url(#filter0_d)"><path d="M75.267 197.65a.5.5 0 01-.628.325l-4.289-1.363a.5.5 0 01.303-.953l3.812 1.211 1.212-3.812a.5.5 0 01.953.303l-1.363 4.289zM156.81 26.324a.526.526 0 01-.096.57.67.67 0 01-.196.143 1.79 1.79 0 01-.308.111c-.221.062-.543.132-.945.21-.809.16-2.011.368-3.529.644l-.179-.984c1.531-.278 2.716-.484 3.515-.64.402-.08.689-.142.867-.192.044-.013.077-.023.101-.032l.031-.011a.369.369 0 00-.096.077.474.474 0 00-.08.508l.915-.404zm-14.731 3.62c-2.866.642-6.06 1.422-9.488 2.37l-.267-.964a199.48 199.48 0 019.537-2.383l.218.976zm-18.801 5.213c-2.98.999-6.054 2.12-9.177 3.38l-.374-.928a165.055 165.055 0 019.233-3.4l.318.948zm-18.112 7.328a128.81 128.81 0 00-8.63 4.575l-.502-.864a129.775 129.775 0 018.697-4.611l.435.9zM88.321 52.31a99.294 99.294 0 00-7.7 5.987l-.653-.757a100.3 100.3 0 017.778-6.048l.575.818zM73.6 65.04a80.411 80.411 0 00-6.191 7.503l-.809-.589a81.438 81.438 0 016.268-7.596l.732.682zM62.197 80.766A74.473 74.473 0 0058.1 89.59l-.932-.36a75.497 75.497 0 014.152-8.943l.877.48zM55.18 98.844a82.496 82.496 0 00-1.771 9.553l-.992-.125a83.484 83.484 0 011.792-9.669l.971.24zM52.716 118.1c-.06 3.135.027 6.378.276 9.735l-.997.074c-.251-3.387-.34-6.662-.279-9.828l1 .019zm1.4 19.425a139.104 139.104 0 001.86 9.61l-.974.224a140.183 140.183 0 01-1.874-9.68l.988-.154zm4.356 19.115a185.426 185.426 0 002.98 9.198l-.944.332a186.308 186.308 0 01-2.995-9.247l.96-.283zm6.432 18.31c1.201 2.967 2.5 5.994 3.899 9.082l-.911.413c-1.405-3.1-2.709-6.14-3.915-9.12l.927-.375zm8.053 17.827a303.82 303.82 0 002.277 4.492l-.888.459a298.062 298.062 0 01-2.285-4.507l.895-.444zm2.786 5.024a.999.999 0 01-1.256.65l-8.577-2.726a1 1 0 01.606-1.906l7.624 2.423 2.424-7.624a1 1 0 011.906.606l-2.727 8.577zm81.525-171.678c.226.511-.028.937-.184 1.108a1.179 1.179 0 01-.341.253 2.294 2.294 0 01-.397.145c-.242.069-.582.141-.984.22-.813.16-2.024.37-3.536.645l-.357-1.968c1.537-.279 2.713-.483 3.508-.64.401-.078.671-.138.828-.182.089-.025.086-.03.043-.009-.009.005-.125.06-.241.187a.972.972 0 00-.168 1.048l1.829-.807zM142.19 30.43c-2.859.641-6.046 1.42-9.465 2.365l-.533-1.928a200.392 200.392 0 019.56-2.388l.438 1.951zm-18.752 5.2a163.654 163.654 0 00-9.149 3.37l-.748-1.856a165.688 165.688 0 019.261-3.41l.636 1.896zm-18.053 7.304a128.16 128.16 0 00-8.597 4.558l-1.004-1.73a130.304 130.304 0 018.731-4.629l.87 1.801zM88.609 52.72a98.804 98.804 0 00-7.662 5.957l-1.306-1.515a100.834 100.834 0 017.818-6.078l1.15 1.636zM73.965 65.38a79.925 79.925 0 00-6.153 7.457l-1.617-1.177a81.909 81.909 0 016.306-7.642l1.464 1.362zM62.636 81.006a73.975 73.975 0 00-4.07 8.765l-1.864-.722a75.95 75.95 0 014.179-9.002l1.755.96zm-6.97 17.958a82.026 82.026 0 00-1.761 9.496l-1.984-.251a84.037 84.037 0 011.803-9.726l1.941.481zm-2.45 19.146c-.06 3.118.027 6.346.274 9.688l-1.994.148a105.898 105.898 0 01-.28-9.875l2 .039zm1.394 19.337a138.09 138.09 0 001.854 9.577l-1.95.447a140.602 140.602 0 01-1.88-9.715l1.976-.309zm4.342 19.052c.88 2.987 1.869 6.044 2.971 9.173l-1.886.665a187.03 187.03 0 01-3.004-9.273l1.919-.565zm6.416 18.264a242.104 242.104 0 003.89 9.063l-1.822.825a243.482 243.482 0 01-3.922-9.138l1.854-.75zm8.036 17.791a299.888 299.888 0 002.274 4.485l-1.776.919a299.1 299.1 0 01-2.29-4.515l1.792-.889z" fill="#000"/></g><defs><filter id="filter0_d" x=".181" y=".657" width="200.557" height="208.978" filterUnits="userSpaceOnUse" color-interpolation-filters="sRGB"><feFlood flood-opacity="0" result="BackgroundImageFix"/><feColorMatrix in="SourceAlpha" values="0 0 0 0 0 0 0 0 0 0 0 0 0 0 0 0 0 0 127 0"/><feOffset dy="4"/><feGaussianBlur stdDeviation="2"/><feColorMatrix values="0 0 0 0 0 0 0 0 0 0 0 0 0 0 0 0 0 0 0.25 0"/><feBlend in2="BackgroundImageFix" result="effect1_dropShadow"/><feBlend in="SourceGraphic" in2="effect1_dropShadow" result="shape"/></filter></defs></svg>