<svg width="167" height="100" fill="none" xmlns="http://www.w3.org/2000/svg"><g filter="url(#filter0_d)"><path d="M154.559 91.343a.5.5 0 00.706.021l3.277-3.084a.5.5 0 10-.685-.728l-2.913 2.741-2.741-2.913a.5.5 0 00-.729.686l3.085 3.277zM5.5 13.89c0 .146-.077.213-.047.178a.946.946 0 01.143-.12c.168-.123.437-.283.815-.477.752-.385 1.873-.873 3.329-1.431l-.358-.934c-1.471.565-2.63 1.067-3.427 1.475a7.386 7.386 0 00-.949.56 1.874 1.874 0 00-.307.271.738.738 0 00-.199.478h1zm14.19-5.097a187.063 187.063 0 0110.109-2.569l-.22-.975A188.64 188.64 0 0019.416 7.83l.274.962zm20.35-4.6A195.977 195.977 0 0150.353 2.7l-.116-.993c-3.577.42-7.045.93-10.366 1.5l.17.985zM60.767 1.78c3.426-.2 6.909-.3 10.417-.276l.007-1C67.659.479 64.154.58 60.708.782l.059.998zm20.837.181c3.46.287 6.915.716 10.334 1.309l.17-.986c-3.45-.598-6.934-1.03-10.421-1.32l-.083.997zm20.48 3.609a83.34 83.34 0 019.807 3.446l.392-.92a84.382 84.382 0 00-9.925-3.488l-.274.962zm19.049 8.173a64.542 64.542 0 018.395 6.068l.65-.76a65.55 65.55 0 00-8.525-6.163l-.52.855zM136.82 27.18a64.234 64.234 0 015.979 8.466l.86-.51a65.193 65.193 0 00-6.072-8.598l-.767.642zm10.581 17.73a83.181 83.181 0 013.326 9.834l.965-.262a84.186 84.186 0 00-3.366-9.953l-.925.38zm5.509 20.002c.533 3.282.937 6.724 1.205 10.332l.997-.074a120.316 120.316 0 00-1.215-10.418l-.987.16zm1.59 20.727c.003 1.747-.022 3.528-.077 5.345l.999.03c.056-1.827.081-3.619.078-5.377l-1 .002zm-.305 6.045a1 1 0 001.413.043l6.554-6.168a1 1 0 00-1.371-1.457l-5.826 5.483-5.483-5.825a1 1 0 10-1.456 1.37l6.169 6.554zM6 13.891c0 .18-.054.313-.089.382a.61.61 0 01-.08.124c-.02.022-.01.006.06-.046.137-.1.379-.245.748-.435.73-.373 1.832-.854 3.28-1.41l-.716-1.867c-1.48.568-2.657 1.077-3.476 1.498a7.86 7.86 0 00-1.016.6c-.128.093-.27.21-.39.347A1.24 1.24 0 004 13.89h2zm13.828-4.618a187.14 187.14 0 0110.08-2.561l-.44-1.951C25.74 5.6 22.318 6.485 19.28 7.35l.549 1.923zm20.297-4.588A195.482 195.482 0 0150.41 3.197l-.233-1.986c-3.585.42-7.063.931-10.392 1.503l.339 1.971zm20.67-2.406c3.417-.2 6.889-.3 10.386-.275l.014-2c-3.544-.025-7.06.076-10.516.278l.117 1.997zm20.768.18c3.447.286 6.886.713 10.29 1.303l.341-1.97A118.697 118.697 0 0081.728.466l-.165 1.993zm20.384 3.592a82.864 82.864 0 019.749 3.425l.782-1.84a84.808 84.808 0 00-9.984-3.509l-.547 1.924zm18.926 8.119a63.937 63.937 0 018.33 6.021l1.3-1.52a66.078 66.078 0 00-8.59-6.21l-1.04 1.709zm15.564 13.332a63.856 63.856 0 015.932 8.4l1.72-1.02a65.767 65.767 0 00-6.118-8.663l-1.534 1.283zm10.502 17.6a82.672 82.672 0 013.305 9.774l1.93-.525a84.687 84.687 0 00-3.385-10.01l-1.85.76zm5.478 19.892c.53 3.266.933 6.693 1.2 10.288l1.994-.148c-.271-3.65-.681-7.134-1.22-10.46l-1.974.32zM154 85.64c.003 1.741-.022 3.517-.077 5.329l1.999.06c.056-1.832.081-3.63.078-5.393l-2 .004z" fill="#000"/></g><defs><filter id="filter0_d" x="0" y="0" width="166.476" height="100" filterUnits="userSpaceOnUse" color-interpolation-filters="sRGB"><feFlood flood-opacity="0" result="BackgroundImageFix"/><feColorMatrix in="SourceAlpha" values="0 0 0 0 0 0 0 0 0 0 0 0 0 0 0 0 0 0 127 0"/><feOffset dy="4"/><feGaussianBlur stdDeviation="2"/><feColorMatrix values="0 0 0 0 0 0 0 0 0 0 0 0 0 0 0 0 0 0 0.25 0"/><feBlend in2="BackgroundImageFix" result="effect1_dropShadow"/><feBlend in="SourceGraphic" in2="effect1_dropShadow" result="shape"/></filter></defs></svg>