<svg width="563" height="90" fill="none" xmlns="http://www.w3.org/2000/svg"><path d="M64.458 48.517V20.775l3.639-3.596c2.021-.685 7.277-.925 12.129 3.596 2.426 2.055 1.01 7.706 0 10.275.202 2.397-1.818 9.763 2.426 13.357 2.426 2.055 4.851 1.028 6.064 1.028h9.704l1.213-11.816V20.775l4.851-6.679 9.097 1.028 7.278 5.651v7.706c-1.213 6.679-3.639 20.858-3.639 24.146 0 3.288 2.426 17.125 3.639 23.633-.607 3.767-2.911 11.713-7.278 13.357-4.366 1.644-9.097-2.398-10.916-4.624-1.011-1.884-3.032-6.268-3.032-8.733V64.957c0-1.644-2.426-6.85-3.64-9.247H86.29l-1.212 5.137c1.212 5.138 3.638 16.029 3.638 18.495 0 2.466-2.425 7.877-3.638 10.275h-7.884l-9.097-4.624V76.26l-3.64-27.743zm429.935-32.252h-9.951v6.315l1.047 6.314 5.238 24.733 8.379 26.837 4.19 3.157c2.269.702 7.227 2.105 8.903 2.105 1.676 0 4.19-3.508 5.237-5.262l3.143-7.893v-4.736l2.094-1.579 2.095 1.579 1.572 6.84c1.047 2.983 3.724 8.246 4.189 8.946 1.048 1.58 2.619 3.158 4.19 3.684 1.571.526 6.285.526 7.856.526 1.257 0 4.713-1.052 5.761-4.21l12.045-46.833c1.048-3.684 2.619-15.26 2.619-16.84 0-1.517 0-2.104-1.571-2.104h-8.903c-1.257 0-4.19-.527-4.19 1.052l-3.666 12.103-3.666 14.208c-.524 2.28-1.781 7.157-2.619 8.42-.838 1.263-2.095.526-2.618 0l-3.143-11.577-6.284-7.367h-3.667l-5.237 4.736-2.095 5.262-3.142 8.946h-2.095l-2.618-9.998-2.619-8.946c-.873-3.684-3.142-11.051-3.666-12.103-.53-1.065-1.571-4.21-2.619-5.263l-2.095-1.052h-2.094zM129.848 36.348c-.353 2.414-1.778 8.83-1.939 11.795V59.13c.646 4.186 1.549 12.945 1.939 14.127 1.543 4.67 3.919 7.87 5.374 9.962 1.454 2.093 5.78 3.862 9.75 4.688C155.025 90 152.271 90 157.489 90c6.287 0 6.304-.523 9.214-2.093 2.909-1.57 7.191-3.944 7.868-4.688 1.913-2.102 4.329-4.42 6.269-7.56 1.939-3.14 2.375-5.119 3.83-9.828s0-10.363 0-12.98c0-2.615-1.965-8.894-2.45-11.51-.484-2.616-3.394-8.371-4.364-10.987-.97-2.616-3.394-5.755-4.849-7.325-1.455-1.57-5.052-5.202-6.304-5.756-.447-.197-7.274-2.092-9.214-2.092-1.939 0-8.338 0-10.668 1.046-2.241 1.006-4.843 1.427-6.724 3.112-1.542 1.38-4.602 4.856-5.572 6.425-.97 1.57-4.179 7.182-4.677 10.584zm289.088-.92c-.359 2.31-1.809 8.446-1.974 11.282v10.51c.658 4.003 1.577 12.382 1.974 13.512 1.57 4.467 3.987 7.527 5.468 9.529 1.48 2.002 5.881 3.694 9.921 4.484 10.229 2.002 7.427 2.002 12.737 2.002 6.397 0 6.415-.5 9.375-2.002 2.961-1.501 7.317-3.772 8.007-4.484 1.946-2.01 4.404-4.228 6.378-7.231 1.974-3.003 2.417-4.897 3.898-9.4 1.48-4.505 0-9.914 0-12.416 0-2.502-2-8.508-2.493-11.01-.493-2.502-3.454-8.008-4.441-10.51-.987-2.502-3.454-5.505-4.934-7.006-1.481-1.502-5.141-4.976-6.415-5.505-.454-.19-7.401-2.002-9.375-2.002-1.974 0-8.485 0-10.856 1-2.279.963-4.928 1.365-6.842 2.977-1.568 1.32-4.682 4.645-5.669 6.146-.987 1.502-4.252 6.87-4.759 10.124zm-162.186.92c-.353 2.414-1.778 8.83-1.94 11.795V59.13c.647 4.186 1.55 12.945 1.94 14.127 1.543 4.67 3.918 7.87 5.373 9.962 1.455 2.093 5.78 3.862 9.751 4.688C281.926 90 279.172 90 284.391 90c6.287 0 6.304-.523 9.213-2.093 2.91-1.57 7.192-3.944 7.869-4.688 1.913-2.102 4.328-4.42 6.268-7.56 1.94-3.14 2.376-5.119 3.831-9.828 1.454-4.709 0-10.363 0-12.98 0-2.615-1.965-8.894-2.45-11.51-.485-2.616-3.394-8.371-4.364-10.987-.97-2.616-3.395-5.755-4.85-7.325-1.454-1.57-5.051-5.202-6.304-5.756-.446-.197-7.273-2.092-9.213-2.092-1.94 0-8.339 0-10.669 1.046-2.24 1.006-4.843 1.427-6.724 3.112-1.541 1.38-4.601 4.856-5.571 6.425-.97 1.57-4.179 7.182-4.677 10.584zM28.45 22.442l5.99-2.649 5.989-.624 5.99-.624 1.497-4.713-.5-7.948-4.99-4.636C39.263.806 32.941-.001 31.444 0h-.005c-1.136 0-4.991.002-7.981 1.248l-9.484 5.961-5.49 6.623s-1.479 2.064-3.494 5.961C3.705 22.28 0 37.753 0 37.753v12.584l2.995 12.507 1.996 6.701 3.494 5.884 7.986 11.26 9.982 2.649 9.983.662 11.48-5.961 5.49-5.96 2.995-6.624v-5.961l-.998-6.623-1.997-3.974h-2.995L45.42 58.87l-2.995 2.649-8.485 6.623-8.485-1.325-5.99-3.311-1.497-8.61v-5.961l1.498-10.598 3.993-9.272 4.99-6.623zm352.995 10.582l5.668-2.235 5.669-.526 5.668-.526 1.418-3.975-.473-6.703-4.724-3.91c-2.991-.372-8.975-1.053-10.392-1.053h-.005c-1.075 0-4.723.002-7.553 1.053l-8.975 5.027-5.197 5.586s-1.399 1.741-3.306 5.027c-1.218 2.098-4.724 15.148-4.724 15.148V56.55l2.834 10.548 1.89 5.65 3.306 4.963 7.558 9.496 9.448 2.235 9.448.558 10.865-5.027 5.196-5.028 2.834-5.585v-5.028l-.945-5.586-1.889-3.351h-2.835l-4.723 3.351-2.835 2.235-8.03 5.586-8.031-1.118-5.668-2.793-1.417-7.261v-5.028l1.417-8.937 3.779-7.82 4.724-5.586zm-160.637 0l5.775-2.235 5.776-.526 5.775-.526 1.444-3.975-.481-6.703-4.813-3.91c-3.048-.372-9.145-1.053-10.589-1.053h-.004c-1.096 0-4.813.002-7.696 1.053l-9.145 5.027-5.294 5.586s-1.426 1.741-3.369 5.027c-1.24 2.098-4.813 15.148-4.813 15.148V56.55l2.888 10.548 1.925 5.65 3.369 4.963 7.701 9.496 9.626 2.235 9.625.558 11.07-5.027 5.294-5.028 2.888-5.585v-5.028l-.962-5.586-1.926-3.351h-2.887l-4.813 3.351-2.888 2.235-8.182 5.586-8.182-1.118-5.776-2.793-1.443-7.261v-5.028l1.443-8.937 3.851-7.82 4.813-5.586z" fill="#7E69AC" fill-opacity=".1"/><ellipse cx="156.613" cy="52.048" rx="11.582" ry="11.928" fill="#fff" fill-opacity=".3"/><ellipse cx="444.156" cy="50.964" rx="11.079" ry="11.928" fill="#fff" fill-opacity=".3"/><ellipse cx="287.543" cy="52.59" rx="11.582" ry="12.47" fill="#fff" fill-opacity=".3"/></svg>