<svg width="436" height="130" fill="none" xmlns="http://www.w3.org/2000/svg"><path d="M123.895 83.912V53.349l4.576-3.962c2.542-.755 9.152-1.019 15.253 3.962 3.05 2.264 1.271 8.49 0 11.32.254 2.64-2.286 10.755 3.05 14.715 3.051 2.264 6.102 1.132 7.627 1.132h12.203l1.525-13.018v-14.15l6.101-7.357 11.44 1.132 9.152 6.226v8.49c-1.525 7.357-4.576 22.978-4.576 26.6 0 3.623 3.051 18.866 4.576 26.035-.763 4.151-3.661 12.904-9.152 14.716-5.491 1.811-11.44-2.642-13.728-5.094-1.271-2.075-3.813-6.905-3.813-9.622v-12.451c0-1.811-3.051-7.547-4.576-10.188H151.35l-1.525 5.66c1.525 5.66 4.576 17.658 4.576 20.375 0 2.717-3.051 8.678-4.576 11.32h-9.914l-11.44-5.094v-9.622l-4.576-30.562zm82.998-13.671c-.444 2.67-2.236 9.767-2.439 13.047V95.44c.813 4.63 1.948 14.318 2.439 15.626 1.939 5.165 4.926 8.704 6.756 11.019 1.829 2.315 7.267 4.271 12.259 5.185 12.639 2.315 9.176 2.315 15.737 2.315 7.905 0 7.926-.578 11.585-2.315 3.658-1.736 9.041-4.362 9.893-5.185 2.404-2.325 5.442-4.89 7.88-8.362 2.439-3.473 2.987-5.662 4.816-10.871 1.83-5.208 0-11.463 0-14.357 0-2.893-2.47-9.838-3.079-12.732-.61-2.894-4.268-9.26-5.488-12.153-1.219-2.894-4.267-6.366-6.097-8.102-1.829-1.737-6.351-5.755-7.925-6.367-.562-.218-9.146-2.315-11.585-2.315-2.438 0-10.484 0-13.413 1.158-2.817 1.113-6.089 1.578-8.454 3.442-1.938 1.527-5.786 5.371-7.005 7.107-1.22 1.736-5.254 7.944-5.88 11.707zm159.368 0c-.445 2.67-2.236 9.767-2.439 13.047V95.44c.813 4.63 1.948 14.318 2.439 15.626 1.939 5.165 4.926 8.704 6.755 11.019 1.829 2.315 7.268 4.271 12.259 5.185 12.639 2.315 9.177 2.315 15.738 2.315 7.905 0 7.926-.578 11.584-2.315 3.658-1.736 9.041-4.362 9.893-5.185 2.405-2.325 5.442-4.89 7.881-8.362 2.439-3.473 2.987-5.662 4.816-10.871 1.829-5.208 0-11.463 0-14.357 0-2.893-2.47-9.838-3.08-12.732-.609-2.894-4.268-9.26-5.487-12.153-1.219-2.894-4.268-6.366-6.097-8.102-1.829-1.737-6.351-5.755-7.926-6.367-.561-.218-9.145-2.315-11.584-2.315s-10.484 0-13.413 1.158c-2.817 1.113-6.09 1.578-8.454 3.442-1.938 1.527-5.786 5.371-7.005 7.107-1.22 1.736-5.254 7.944-5.88 11.707zM78.621 55.014l7.613-2.94 7.613-.694 7.613-.692 1.903-5.231-.634-8.822-6.344-5.146c-4.018-.49-12.054-1.386-13.957-1.386h-.007c-1.444 0-6.343.002-10.144 1.386l-12.054 6.616-6.978 7.352s-1.88 2.29-4.441 6.616c-1.635 2.76-6.345 19.935-6.345 19.935v13.968l3.807 13.883 2.538 7.437 4.44 6.531 10.151 12.497 12.688 2.941 12.689.735 14.591-6.616 6.979-6.617 3.806-7.351v-6.617l-1.268-7.352-2.538-4.41h-3.807l-6.344 4.41-3.806 2.941L85.6 105.74l-10.785-1.471-7.613-3.675-1.903-9.557V84.42l1.903-11.762 5.075-10.293 6.344-7.351zm242.155 11.829l7.16-2.462 7.16-.58 7.16-.58 1.79-4.378-.596-7.385-5.967-4.307c-3.779-.41-11.337-1.16-13.127-1.16h-.006c-1.358 0-5.966.002-9.541 1.16l-11.337 5.538-6.563 6.154s-1.768 1.918-4.177 5.538c-1.538 2.311-5.967 16.688-5.967 16.688V92.76l3.58 11.62 2.387 6.226 4.177 5.466 9.546 10.462 11.934 2.461 11.934.616 13.723-5.539 6.564-5.538 3.58-6.154v-5.538l-1.194-6.154-2.386-3.692h-3.58l-5.967 3.692-3.58 2.461-10.144 6.154-10.143-1.231-7.161-3.076-1.79-8v-5.539l1.79-9.846 4.774-8.615 5.967-6.154z" fill="#7E69AC" fill-opacity=".1"/><ellipse cx="240.794" cy="87.802" rx="14.448" ry="13.379" fill="#fff" fill-opacity=".3"/><ellipse cx="399.286" cy="87.802" rx="14.448" ry="13.379" fill="#fff" fill-opacity=".3"/><path d="M38.084 29.046C28.317 20.41 22.15 18.952 25.317 15.779s11.835-.19 19.361 6.66c7.526 6.851 9.93 15.04 8.809 17.863-3.167 3.173-5.636-2.62-15.403-11.256zM17.523 54.853c-11.456-.436-17.38-1.317-16.32-5.191 1.058-3.875 9.352-5.163 18.524-2.877 9.172 2.286 15.3 5.421 15.545 10.684-1.059 3.874-6.294-2.18-17.75-2.616zM66.786 14.89c-2.37-4.627-6.514-12.719-1.704-13.702 4.809-.983 7.041 4.804 8.704 12.223 1.663 7.42 3.858 12.826.237 13.566-1.207.246-4.867-7.462-7.237-12.088z" fill="#7E69AC" fill-opacity=".1"/></svg>