<svg width="1510" height="158" fill="none" xmlns="http://www.w3.org/2000/svg"><path d="M1507.79 0H-18.066c-7.5 49.565-13.899 148.696 20.498 148.696 42.996 0 65.493-89.797 131.487-107.177 65.994-17.38 108.49 45.864 171.983 61.313 50.796 12.359 79.947-63.244 99.491-43.933 85.992 84.969 110.989 76.762 185.982 61.313 74.993-15.449 58.494-61.313 114.989-47.795 56.494 13.518 33.997 30.415 74.993 30.415 40.996 0 29.497-30.415 74.492-43.933 44.996-13.518 76.993 107.177 151.981 89.797 75-17.38 65.5-76.279 92.5-76.279 26.99 0 45.49 43.45 113.48 47.795 68 4.345 59-30.415 103.99-47.795 45-17.38 84 122.143 146.99 76.279 50.4-36.691 49.66-114.419 43-148.696z" fill="#E0D8EF"/></svg>